<svg width="80" height="77" viewBox="0 0 80 77" fill="none" xmlns="http://www.w3.org/2000/svg"><g filter="url(#filter0_d_6337_6797)"><path fill-rule="evenodd" clip-rule="evenodd" d="M53 4.43c-.704 0-1.275.584-1.275 1.306v.577a.423.423 0 01-.418.429.424.424 0 01-.419-.43v-.576c0-1.196.946-2.165 2.112-2.165h.162c1.077 0 1.95.895 1.95 1.998v.765c0 .681-.54 1.234-1.204 1.234a.37.37 0 00-.366.375v2.481h-.837V7.943c0-.681.538-1.234 1.203-1.234a.37.37 0 00.366-.375V5.57c0-.63-.498-1.14-1.112-1.14H53z" fill="#B6BABF"/><path d="M55.16 9.604h-2.809c-.615 1.842-4.927 5.875-10.093 7.27.673.865 2.45 2.08 4.18 0 1.223-1.47 3.295-2.703 4.934-3.491a3.926 3.926 0 013.41 0c1.639.787 3.711 2.02 4.933 3.49 1.73 2.08 3.508.866 4.18 0-5.166-1.394-8.121-5.427-8.737-7.269z" fill="#975D48"/><path d="M42.259 16.38c4.316-1.166 6.786-4.172 7.841-6.204.32-.617.92-1.065 1.601-1.065h2.753c.681 0 1.28.448 1.6 1.065 1.055 2.031 3.526 5.038 7.843 6.204-.673.866-2.45 2.08-4.18 0-1.223-1.471-3.295-2.704-4.934-3.49a3.926 3.926 0 00-3.41 0c-1.639.788-3.711 2.02-4.933 3.49-1.73 2.08-3.508.866-4.181 0z" fill="#C6965F"/><path d="M31.473 48.897c.317-.922 1.304-1.407 2.203-1.081l2.349.848c.9.325 1.372 1.337 1.054 2.26l-.828 2.406c-.317.922-1.303 1.406-2.203 1.081l-2.348-.848c-.9-.326-1.372-1.337-1.055-2.26l.828-2.406zm43.054 0c-.317-.922-1.304-1.407-2.204-1.081l-2.348.848c-.9.325-1.372 1.337-1.055 2.26l.828 2.406c.317.922 1.304 1.406 2.204 1.081l2.348-.848c.9-.326 1.372-1.337 1.055-2.26l-.828-2.406z" fill="#CD5747"/><path d="M41.103 15.626a1.998 1.998 0 011.892-1.398h6.127l-11.08 36.77c-.27.896-1.218 1.376-2.075 1.052l-4.518-1.708c-.808-.305-1.233-1.213-.96-2.05l10.614-32.666zm23.794 0a1.998 1.998 0 00-1.892-1.398h-6.127l11.08 36.77c.27.896 1.217 1.376 2.075 1.052l4.518-1.708c.807-.305 1.233-1.213.96-2.05L64.898 15.626z" fill="#DE6A5A"/><path d="M40.996 16.271c0-1.128.893-2.043 1.994-2.043h20.02c1.1 0 1.993.915 1.993 2.043v32.153c0 2.332-1.844 4.223-4.12 4.223H45.117c-2.275 0-4.12-1.89-4.12-4.223V16.271z" fill="#DE6A5A"/><path fill-rule="evenodd" clip-rule="evenodd" d="M40.996 39.34V16.27c0-1.128.893-2.043 1.994-2.043h20.02c1.1 0 1.993.915 1.993 2.043v23.07c-3.22 2.694-7.415 4.322-12.003 4.322s-8.784-1.628-12.004-4.322z" fill="#EC856F"/><path fill-rule="evenodd" clip-rule="evenodd" d="M43.408 33.19h-8.012l5.707-17.565a1.998 1.998 0 011.891-1.397h6.128l-5.714 18.961zm19.183 0h8.013l-5.707-17.565a1.998 1.998 0 00-1.892-1.397h-6.127l5.713 18.961z" fill="#EC856F"/><path fill-rule="evenodd" clip-rule="evenodd" d="M49.858 29.772V17.734h.93v12.038a.471.471 0 01-.465.477.471.471 0 01-.465-.477z" fill="#fff"/><path d="M64.955 26.682v14.462l3.094 10.137c.22.72.971 1.12 1.673.89l.25-.081-5.017-25.408z" fill="#CD5747"/><path d="M49.122 14.228h7.756v.661c0 1.73-1.369 3.133-3.057 3.133h-1.643c-1.688 0-3.056-1.403-3.056-3.133v-.661z" fill="#AF5947"/><path fill-rule="evenodd" clip-rule="evenodd" d="M55.537 29.772V17.734h.93v12.038a.471.471 0 01-.465.477.471.471 0 01-.465-.477z" fill="#fff"/><path d="M42.58 14.276s1.002-.836 2.219-1.83c1.445-1.18 3.544-.883 4.649.635l3.845 5.281c-5.197.24-9.29-2.586-10.714-4.086z" fill="#DE6A5A"/><path d="M63.42 14.276s-1.002-.836-2.22-1.83c-1.444-1.18-3.543-.883-4.648.635l-3.845 5.281c5.197.24 9.29-2.586 10.714-4.086z" fill="#DE6A5A"/></g><g filter="url(#filter1_d_6337_6797)"><path d="M47.602 65h-32.3c-2.89 0-5.107-2.322-4.702-4.917L11.977 49.8c.705-4.506 5.297-8.55 10.311-8.55h18.327c5.014 0 9.264 3.349 9.97 7.855l1.719 10.978C52.71 62.678 50.49 65 47.602 65z" fill="#5BA7B1"/><path d="M39.04 46H23.865v.95h15.173V46z" fill="#E8E9EB"/><path d="M37.743 32.776c-.203.881-.42 1.824-.562 1.824-.145 0-.238-.464-.364-1.096-.175-.87-.413-2.06-.938-2.792a4.789 4.789 0 00-.577-.569c-.983-.602-2.218-.943-3.522-.947-1.304.004-2.54.345-3.522.947a4.744 4.744 0 00-.577.569c-.525.733-.763 1.921-.938 2.792-.127.632-.22 1.096-.364 1.096-.142 0-.359-.943-.562-1.824-.169-.731-.328-1.42-.426-1.496-.208-.156-.33-.4-.373-.664a1.027 1.027 0 01-.017-.205 1.33 1.33 0 01.297-.87C26.785 27.826 29.148 27 31.757 27h.046c2.61 0 4.972.827 6.459 2.54.197.228.3.553.297.871.001.069-.005.138-.017.205a1.018 1.018 0 01-.373.665c-.098.074-.257.764-.426 1.495z" fill="#208B86"/><path d="M25.587 28.9c-2.375 1.9-3.29 4.515-3.75 6.851l-5.75 29.248h5.866L26.4 35.76c.134-.884.17-1.776.106-2.664-1.395-1.82-.92-4.195-.92-4.195zm11.731 0c2.375 1.9 3.29 4.515 3.75 6.851l5.75 29.248h-5.866l-4.447-29.24a11.985 11.985 0 01-.106-2.664c1.394-1.82.92-4.195.92-4.195z" fill="#3C8B96"/><path d="M36.345 59.75h-9.003c-.399 0-.723-.295-.723-.657v-3.436c0-.362.324-.657.723-.657h9.003c.399 0 .724.295.724.657v3.436c0 .362-.322.657-.724.657z" fill="#237883"/><path d="M26.209 46.95h2.049l.34 4.37c.057.72-.595 1.33-1.42 1.33-.839 0-1.494-.63-1.42-1.358l.45-4.343z" fill="#E8E9EB"/><path d="M27.177 52.128a.903.903 0 100-1.807.903.903 0 000 1.807z" fill="#5BA7B1"/></g><defs><filter id="filter0_d_6337_6797" x="26" y="1.571" width="54" height="59.429" filterUnits="userSpaceOnUse" color-interpolation-filters="sRGB"><feFlood flood-opacity="0" result="BackgroundImageFix"/><feColorMatrix in="SourceAlpha" values="0 0 0 0 0 0 0 0 0 0 0 0 0 0 0 0 0 0 127 0" result="hardAlpha"/><feOffset dy="2"/><feGaussianBlur stdDeviation="2"/><feComposite in2="hardAlpha" operator="out"/><feColorMatrix values="0 0 0 0 0 0 0 0 0 0 0 0 0 0 0 0 0 0 0.25 0"/><feBlend in2="BackgroundImageFix" result="effect1_dropShadow_6337_6797"/><feBlend in="SourceGraphic" in2="effect1_dropShadow_6337_6797" result="shape"/></filter><filter id="filter1_d_6337_6797" x=".552" y="19" width="61.8" height="58" filterUnits="userSpaceOnUse" color-interpolation-filters="sRGB"><feFlood flood-opacity="0" result="BackgroundImageFix"/><feColorMatrix in="SourceAlpha" values="0 0 0 0 0 0 0 0 0 0 0 0 0 0 0 0 0 0 127 0" result="hardAlpha"/><feOffset dy="2"/><feGaussianBlur stdDeviation="5"/><feComposite in2="hardAlpha" operator="out"/><feColorMatrix values="0 0 0 0 0 0 0 0 0 0 0 0 0 0 0 0 0 0 0.25 0"/><feBlend in2="BackgroundImageFix" result="effect1_dropShadow_6337_6797"/><feBlend in="SourceGraphic" in2="effect1_dropShadow_6337_6797" result="shape"/></filter></defs></svg>