<svg width="72" height="72" viewBox="0 0 72 72" fill="none" xmlns="http://www.w3.org/2000/svg"><g clip-path="url(#clip0_6337_6743)"><path fill-rule="evenodd" clip-rule="evenodd" d="M25.352 14a2.1 2.1 0 00-2.103 2.095v27.239a2.1 2.1 0 002.103 2.095h36.545A2.1 2.1 0 0064 43.333V22.12a2.1 2.1 0 00-2.103-2.095H42.836l-3.194-5.046a2.105 2.105 0 00-1.78-.978h-12.51z" fill="#5BA7B1"/><path d="M47.174 20.024h14.723A2.1 2.1 0 0164 22.119v21.214a2.1 2.1 0 01-2.103 2.096H47.174V20.024z" fill="#3C8B96"/><path fill-rule="evenodd" clip-rule="evenodd" d="M17.728 19.762a2.1 2.1 0 00-2.104 2.095v27.239a2.1 2.1 0 002.104 2.095h36.544a2.1 2.1 0 002.104-2.096V27.881a2.1 2.1 0 00-2.104-2.095h-19.06l-3.194-5.046a2.105 2.105 0 00-1.78-.978h-12.51z" fill="#EC856F"/><path d="M39.55 25.786h14.722a2.1 2.1 0 012.104 2.095v21.214a2.1 2.1 0 01-2.104 2.096H39.55V25.785z" fill="#DE6A5A"/><path fill-rule="evenodd" clip-rule="evenodd" d="M10.103 26.571A2.1 2.1 0 008 28.667v27.238A2.1 2.1 0 0010.103 58h36.545a2.1 2.1 0 002.103-2.095V34.69a2.1 2.1 0 00-2.103-2.095H27.587l-3.194-5.046a2.105 2.105 0 00-1.779-.978h-12.51z" fill="#E9AF58"/><path d="M31.925 32.595h14.723a2.1 2.1 0 012.103 2.096v21.214A2.1 2.1 0 0146.648 58H31.925V32.595z" fill="#D9942D"/><path d="M39.55 49.75c0-.796-.648-1.44-1.447-1.44-.798 0-1.446.644-1.446 1.44v2.88c0 .796.648 1.441 1.446 1.441.799 0 1.446-.645 1.446-1.44V49.75zm4.732 0c0-.796-.648-1.44-1.446-1.44-.799 0-1.446.644-1.446 1.44v2.88c0 .796.647 1.441 1.446 1.441.798 0 1.446-.645 1.446-1.44V49.75z" fill="#fff"/></g><defs><clipPath id="clip0_6337_6743"><path fill="#fff" transform="translate(8 14)" d="M0 0h56v44H0z"/></clipPath></defs></svg>