<svg width="113" height="80" viewBox="0 0 113 80" fill="none" xmlns="http://www.w3.org/2000/svg"><g filter="url(#filter0_d_3945_24462)"><path d="M93.835 72.565H45.719a1.932 1.932 0 01-1.925-1.928V22.455c0-1.06.866-1.928 1.925-1.928h48.116c1.058 0 1.924.868 1.924 1.928v48.182c0 1.06-.866 1.928-1.924 1.928z" fill="#fff"/></g><path d="M87.05 26.309H73.578a.966.966 0 00-.963.963v13.491c0 .53.433.964.963.964H87.05c.53 0 .962-.434.962-.964v-13.49a.966.966 0 00-.962-.964z" fill="#F0F1F2"/><path d="M87.098 41.728H73.625a.966.966 0 01-.962-.963v-2.41H88.06v2.41c0 .53-.433.963-.962.963z" fill="#F0F1F2"/><path d="M75.07 41.727v-6.023c0-.771.289-1.494.866-2.024l.241-.24c.53-.53.866-1.253.866-2.024v-2.217h2.406v2.168c0 .771.289 1.494.866 2.024l.24.241c.53.53.867 1.253.867 2.024v6.07H75.07z" fill="#D2D5D9"/><path d="M81.325 38.355H75.07v3.373h6.255v-3.373z" fill="#B6BABF"/><path d="M84.934 41.727h-5.293l-.962-5.782h7.218l-.963 5.782z" fill="#F0F1F2"/><path d="M79.064 38.355l.577 3.373h5.293l.529-3.373h-6.4z" fill="#D2D5D9"/><path d="M52.408 45.582h13.473c1.058 0 1.924.867 1.924 1.927v17.346c0 1.06-.866 1.927-1.924 1.927H52.408a1.932 1.932 0 01-1.925-1.927V47.51c0-1.06.867-1.927 1.925-1.927z" fill="#F0F1F2"/><path d="M60.105 29.2h-7.698a1.419 1.419 0 01-1.444-1.446c0-.819.626-1.445 1.444-1.445h7.698c.818 0 1.444.626 1.444 1.445 0 .82-.674 1.446-1.444 1.446z" fill="#D2D5D9"/><path d="M66.36 34.017H51.927a.966.966 0 01-.963-.964c0-.53.433-.963.963-.963H66.36c.53 0 .963.433.963.963s-.433.964-.962.964zm-2.886 4.82H51.926a.966.966 0 01-.963-.963c0-.53.433-.964.963-.964h11.548c.529 0 .962.434.962.964s-.433.963-.962.963z" fill="#F0F1F2"/><path d="M86.089 48.473h-12.51a1.419 1.419 0 01-1.444-1.445c0-.82.626-1.446 1.444-1.446h12.51c.818 0 1.443.626 1.443 1.446 0 .819-.673 1.445-1.443 1.445z" fill="#D2D5D9"/><path d="M86.089 53.29H73.098a.966.966 0 01-.963-.963c0-.53.433-.964.963-.964h12.99c.53 0 .963.434.963.964s-.433.964-.962.964zm-2.887 4.82H73.098a.966.966 0 01-.963-.963c0-.53.433-.963.963-.963h10.104a.965.965 0 010 1.927zm2.887 4.817H73.098a.966.966 0 01-.963-.963c0-.53.433-.964.963-.964h12.99c.53 0 .963.434.963.964s-.433.963-.962.963z" fill="#F0F1F2"/><path d="M60.109 45.582h-1.925v.964h1.925v-.964zm-3.852 0h-1.925v.964h1.925v-.964zm0 20.238h-1.925v.964h1.925v-.964zm7.699-20.238h-1.924v.964h1.924v-.964zm3.85 11.563h-.962v1.927h.962v-1.928zM52.409 46.546h-.962v.963h-.963v-.963c0-.53.433-.964.963-.964h.962v.964zm-.962 10.599h-.963v1.927h.963v-1.928zM67.806 61h-.962v1.927h.962V61zm-16.359 0h-.963v1.927h.963V61zm15.397-13.49v-.964h-.963v-.964h.963c.529 0 .962.434.962.964v.963h-.962zm-2.888 18.31h-1.924v.964h1.924v-.964zm3.85-16.382h-.962v1.927h.962v-1.928zm-16.359 0h-.963v1.927h.963v-1.928zm16.359 3.855h-.962v1.927h.962v-1.927zm-16.359 0h-.963v1.927h.963v-1.927zM65.881 65.82h.963v-.964h.962v.963c0 .53-.433.964-.962.964h-.963v-.964zm-14.434-.964v.963h.962v.964h-.962a.966.966 0 01-.963-.964v-.963h.963zm8.662.964h-1.925v.964h1.925v-.964z" fill="#D2D5D9"/><path d="M56.256 57.146H32.679a3.863 3.863 0 01-3.85-3.855v-4.818h1.925v4.818c0 1.06.866 1.927 1.925 1.927h23.577v1.928z" fill="#1F2225"/><path d="M59.145 54.255c1.058 0 1.924.868 1.924 1.928s-.866 1.927-1.924 1.927a1.932 1.932 0 01-1.925-1.927c0-1.06.866-1.928 1.925-1.928zm0-1.927a3.863 3.863 0 00-3.85 3.855 3.863 3.863 0 003.85 3.854 3.863 3.863 0 003.849-3.854 3.863 3.863 0 00-3.85-3.855z" fill="#1F2225"/><g filter="url(#filter1_d_3945_24462)"><path d="M44.757 8H14.925A1.932 1.932 0 0013 9.927v39.51c0 1.06.866 1.928 1.925 1.928h29.832a1.932 1.932 0 001.924-1.928V9.927c0-1.06-.866-1.927-1.924-1.927z" fill="#fff"/></g><path d="M23.105 47.507h13.473a3.38 3.38 0 003.368-3.372c0-1.831-1.54-3.373-3.368-3.373H23.105a3.38 3.38 0 00-3.368 3.373 3.35 3.35 0 003.368 3.372z" fill="#336FB2"/><path d="M41.868 36.91H17.81a.966.966 0 01-.962-.963V12.819c0-.53.433-.964.962-.964h24.058c.53 0 .962.434.962.964v23.128c0 .53-.433.963-.962.963z" fill="#7FBEC6"/><path d="M26.567 29.2h-1.443l-2.117 7.708h.914l2.646-7.709zm6.209 0h-1.444l1.588 7.708h.914L32.775 29.2z" fill="#BF8563"/><path d="M29.118 29.2h-1.444l-1.058 7.708h.914l1.588-7.709zm6.208 0h-1.443l2.646 7.708h.914L35.326 29.2z" fill="#975D48"/><path d="M36.192 29.2h-9.816v-2.313h9.816c.53 0 .962.433.962.963v.386c0 .53-.433.963-.962.963z" fill="#D2D5D9"/><path d="M22.72 17.636c-.578-.049-1.059.53-.963 1.108l1.973 9.83c.048.336.385.625.77.625h8.324v-1.011c0-.338-.048-.578-.337-.723l-1.491-.578c-1.059-.434-1.684-1.59-1.396-2.698l.722-2.892a2.433 2.433 0 00-.625-2.264 2.254 2.254 0 00-1.396-.675l-5.581-.722z" fill="#fff"/><defs><filter id="filter0_d_3945_24462" x="38.794" y="16.527" width="61.965" height="62.039" filterUnits="userSpaceOnUse" color-interpolation-filters="sRGB"><feFlood flood-opacity="0" result="BackgroundImageFix"/><feColorMatrix in="SourceAlpha" values="0 0 0 0 0 0 0 0 0 0 0 0 0 0 0 0 0 0 127 0" result="hardAlpha"/><feOffset dy="1"/><feGaussianBlur stdDeviation="2.5"/><feColorMatrix values="0 0 0 0 0 0 0 0 0 0 0 0 0 0 0 0 0 0 0.3 0"/><feBlend in2="BackgroundImageFix" result="effect1_dropShadow_3945_24462"/><feBlend in="SourceGraphic" in2="effect1_dropShadow_3945_24462" result="shape"/></filter><filter id="filter1_d_3945_24462" x="3" y="0" width="53.681" height="63.363" filterUnits="userSpaceOnUse" color-interpolation-filters="sRGB"><feFlood flood-opacity="0" result="BackgroundImageFix"/><feColorMatrix in="SourceAlpha" values="0 0 0 0 0 0 0 0 0 0 0 0 0 0 0 0 0 0 127 0" result="hardAlpha"/><feOffset dy="2"/><feGaussianBlur stdDeviation="5"/><feColorMatrix values="0 0 0 0 0 0 0 0 0 0 0 0 0 0 0 0 0 0 0.3 0"/><feBlend in2="BackgroundImageFix" result="effect1_dropShadow_3945_24462"/><feBlend in="SourceGraphic" in2="effect1_dropShadow_3945_24462" result="shape"/></filter></defs></svg>