<svg width="77" height="72" viewBox="0 0 77 72" fill="none" xmlns="http://www.w3.org/2000/svg"><g filter="url(#filter0_d_6305_170226)"><path fill="#E9AF58" d="M10 19h37.708v28.061H10z"/><path fill="#D9942D" d="M24.908 19h9.646v8.769h-9.646z"/><rect x="32.8" y="37.416" width="11.4" height="1.754" rx=".877" fill="#fff"/><rect x="32.8" y="40.923" width="11.4" height="1.754" rx=".877" fill="#fff"/><path fill-rule="evenodd" clip-rule="evenodd" d="M60.416 26.892H47.708v4.51h17.538l-.639-1.642a4.497 4.497 0 00-4.192-2.867zm4.83 4.51H47.708v15.659H67v-9.646l-1.754-6.013z" fill="#5BA7B1"/><path fill-rule="evenodd" clip-rule="evenodd" d="M50.339 29.523h9.242a3.27 3.27 0 013.048 2.085l.465 1.195 1.275 4.373H50.34v-7.653z" fill="#E8E9EB"/><path fill-rule="evenodd" clip-rule="evenodd" d="M50.447 29.523h-.108v7.653h14.03l-.001-.007-14.03-7.452.11-.194z" fill="#D2D5D9"/><path fill="#3C8B96" d="M10 47.062h57v4.385H10z"/><circle cx="57.354" cy="51.446" r="6.138" fill="#237883"/><circle cx="57.354" cy="51.446" r="2.631" fill="#D2D5D9"/><circle cx="23.154" cy="51.446" r="6.138" fill="#237883"/><circle cx="23.154" cy="51.446" r="2.631" fill="#D2D5D9"/></g><defs><filter id="filter0_d_6305_170226" x="0" y="11" width="77" height="58.585" filterUnits="userSpaceOnUse" color-interpolation-filters="sRGB"><feFlood flood-opacity="0" result="BackgroundImageFix"/><feColorMatrix in="SourceAlpha" values="0 0 0 0 0 0 0 0 0 0 0 0 0 0 0 0 0 0 127 0" result="hardAlpha"/><feOffset dy="2"/><feGaussianBlur stdDeviation="5"/><feComposite in2="hardAlpha" operator="out"/><feColorMatrix values="0 0 0 0 0 0 0 0 0 0 0 0 0 0 0 0 0 0 0.25 0"/><feBlend in2="BackgroundImageFix" result="effect1_dropShadow_6305_170226"/><feBlend in="SourceGraphic" in2="effect1_dropShadow_6305_170226" result="shape"/></filter></defs></svg>