<svg width="113" height="76" viewBox="0 0 113 76" fill="none" xmlns="http://www.w3.org/2000/svg"><g filter="url(#filter0_d_3945_24428)"><path d="M96.455 19.52a2 2 0 00-2-2h-65.48a2 2 0 00-2 2v42.324a2 2 0 002 2h65.48a2 2 0 002-2V19.519z" fill="#fff"/></g><path d="M71.902 41.626c0-5.113 4.126-9.259 9.216-9.259 5.088 0 9.214 4.146 9.214 9.26v21.929h-18.43v-21.93z" fill="#6B7177"/><path d="M73.8 41.446c0-4.043 3.263-7.321 7.287-7.321 4.025 0 7.287 3.278 7.287 7.321v11.898H73.801V41.446z" fill="#B6BABF"/><path d="M73.8 41.446c0-4.043 3.263-7.321 7.287-7.321 4.025 0 7.287 3.278 7.287 7.321v2.746H73.801v-2.746z" fill="#9FA5AB"/><path d="M82.488 32.863h-2.802v27.455h2.802V32.863z" fill="#6B7177"/><path d="M73.8 55.18h14.574v6.406H73.801V55.18z" fill="#6B7177"/><path d="M74.077 51.164h-1.401v5.632h1.401v-5.632z" fill="#1F2225"/><path d="M67.281 33.863H32.873v20.744h34.408V33.863z" fill="#B6BABF"/><path d="M67.281 33.863H32.873V45.1h34.408V33.863z" fill="#9FA5AB"/><path d="M100.998 17.746h-78.57v6.4c0 .771.622 1.397 1.39 1.397h75.789c.769 0 1.391-.625 1.391-1.397v-6.4z" fill="#5BA7B1"/><path d="M96.976 9.663A3 3 0 0094.29 8H29.136a3 3 0 00-2.686 1.663l-4.022 8.084h78.57l-4.022-8.084z" fill="#7FBEC6"/><path d="M28.735 29.442c3.482 0 6.305-2.618 6.305-5.848s-2.823-5.848-6.305-5.848c-3.482 0-6.305 2.618-6.305 5.848s2.823 5.848 6.305 5.848z" fill="#5BA7B1"/><path d="M38.919 29.442c3.75 0 6.79-2.618 6.79-5.848s-3.04-5.848-6.79-5.848-6.79 2.618-6.79 5.848 3.04 5.848 6.79 5.848z" fill="#5BA7B1"/><path d="M50.075 29.442c3.482 0 6.305-2.618 6.305-5.848s-2.823-5.848-6.306-5.848c-3.482 0-6.304 2.618-6.304 5.848s2.822 5.848 6.304 5.848z" fill="#5BA7B1"/><path d="M61.715 29.442c3.482 0 6.305-2.618 6.305-5.848s-2.823-5.848-6.305-5.848c-3.482 0-6.305 2.618-6.305 5.848s2.823 5.848 6.305 5.848z" fill="#5BA7B1"/><path d="M71.414 29.442c3.483 0 6.305-2.618 6.305-5.848s-2.822-5.848-6.305-5.848c-3.482 0-6.305 2.618-6.305 5.848s2.823 5.848 6.305 5.848z" fill="#5BA7B1"/><path d="M83.055 29.442c3.482 0 6.305-2.618 6.305-5.848s-2.823-5.848-6.305-5.848c-3.482 0-6.305 2.618-6.305 5.848s2.823 5.848 6.305 5.848z" fill="#5BA7B1"/><path d="M94.696 29.442c3.482 0 6.305-2.618 6.305-5.848s-2.823-5.848-6.305-5.848c-3.483 0-6.305 2.618-6.305 5.848s2.822 5.848 6.305 5.848z" fill="#5BA7B1"/><path d="M52.69 33.023h-4.3v22.478h4.302V33.023z" fill="#E8E9EB"/><path d="M26.684 48.7a4.045 4.045 0 00-4.046-4.067h-.368a4.045 4.045 0 00-4.045 4.067v3.328h1.103V48.7c0-1.627 1.324-2.958 2.942-2.958h.368c1.618 0 2.942 1.331 2.942 2.958v3.328h1.104V48.7z" fill="#D9942D"/><path d="M28.965 48.7a4.054 4.054 0 00-4.064-4.067 4.054 4.054 0 00-4.065 4.067v3.328h1.109V48.7a2.966 2.966 0 012.956-2.958 2.966 2.966 0 012.956 2.958v3.328h1.108V48.7z" fill="#E9AF58"/><path d="M13 67.482h5.02l1.433-16.365h-3.38L13 67.482z" fill="#D9942D"/><path d="M33.743 67.482H16.227l1.997-16.365H30.67l3.073 16.365z" fill="#E9AF58"/><path d="M22.706 54.512h-.795a.675.675 0 00-.484.212l-1.659 1.698a.707.707 0 00-.207.496v5.731c0 .212.138.354.345.354h4.84c.208 0 .346-.142.346-.354v-5.731a.707.707 0 00-.207-.496l-1.66-1.698c-.173-.141-.346-.212-.519-.212z" fill="#fff"/><path d="M22.326 57.137a.615.615 0 00.614-.617.616.616 0 00-.614-.618.616.616 0 00-.615.618c0 .341.275.617.615.617z" fill="#E9AF58"/><path d="M22.018 51.117h.614v4.94c0 .171-.137.31-.307.31a.308.308 0 01-.307-.31v-4.94z" fill="#202122"/><defs><filter id="filter0_d_3945_24428" x="16.975" y="9.52" width="89.481" height="66.324" filterUnits="userSpaceOnUse" color-interpolation-filters="sRGB"><feFlood flood-opacity="0" result="BackgroundImageFix"/><feColorMatrix in="SourceAlpha" values="0 0 0 0 0 0 0 0 0 0 0 0 0 0 0 0 0 0 127 0" result="hardAlpha"/><feOffset dy="2"/><feGaussianBlur stdDeviation="5"/><feColorMatrix values="0 0 0 0 0 0 0 0 0 0 0 0 0 0 0 0 0 0 0.3 0"/><feBlend in2="BackgroundImageFix" result="effect1_dropShadow_3945_24428"/><feBlend in="SourceGraphic" in2="effect1_dropShadow_3945_24428" result="shape"/></filter></defs></svg>