<svg width="74" height="72" viewBox="0 0 74 72" fill="none" xmlns="http://www.w3.org/2000/svg"><g filter="url(#filter0_d_6305_170186)"><path fill-rule="evenodd" clip-rule="evenodd" d="M52.692 21.513C58.937 21.513 64 26.56 64 32.783v6.261c0 6.225-5.063 11.27-11.308 11.27H41.384v-6.4h11.308c2.776 0 5.026-2.242 5.026-5.009v-5.982c0-2.767-2.25-5.01-5.026-5.01H41.384v-6.4h11.308z" fill="#157A76"/><path fill-rule="evenodd" clip-rule="evenodd" d="M17.513 14A2.509 2.509 0 0015 16.504v33.81c0 .712.198 1.376.543 1.943l2.547 5.386a2.513 2.513 0 002.273 1.437h25.71c.973 0 1.858-.56 2.273-1.437l2.548-5.387a3.73 3.73 0 00.542-1.942v-33.81A2.509 2.509 0 0048.923 14h-31.41z" fill="#399C97"/><path fill-rule="evenodd" clip-rule="evenodd" d="M15 16.504A2.509 2.509 0 0117.513 14h16.333v45.08H20.363c-.973 0-1.858-.56-2.273-1.437l-2.547-5.386A3.73 3.73 0 0115 50.314v-33.81z" fill="#5AB2AC"/><path fill-rule="evenodd" clip-rule="evenodd" d="M20.534 59.08h13.312v-6.26H15.808l2.485 4.888a2.514 2.514 0 002.241 1.372z" fill="#208B86"/><path fill-rule="evenodd" clip-rule="evenodd" d="M46.231 59.08H33.846v-6.26h16.782l-2.096 4.761a2.513 2.513 0 01-2.3 1.5z" fill="#157A76"/><path d="M23.424 34.07h1.581v-2.125l2.142-4.059h-1.68l-1.237 2.572h-.03l-1.237-2.572h-1.681l2.142 4.059v2.126zm6.606.112c1.896 0 3.072-1.23 3.072-3.202v-.008c0-1.967-1.18-3.198-3.072-3.198-1.88 0-3.069 1.23-3.069 3.198v.008c0 1.972 1.181 3.202 3.069 3.202zm0-1.303c-.888 0-1.457-.724-1.457-1.899v-.008c0-1.175.573-1.895 1.457-1.895.892 0 1.465.725 1.465 1.895v.008c0 1.162-.56 1.899-1.465 1.899zm6.52 1.303c1.633 0 2.68-.917 2.68-2.306v-3.99h-1.581v3.84c0 .72-.388 1.153-1.095 1.153-.711 0-1.099-.433-1.099-1.153v-3.84h-1.581v3.99c0 1.393 1.055 2.306 2.676 2.306zm3.624-.112h1.581v-2.13h.806l1.069 2.13h1.775l-1.245-2.365c.646-.279 1.06-.965 1.06-1.757v-.01c0-1.31-.85-2.052-2.353-2.052h-2.693v6.185zm1.581-3.27v-1.727h.927c.556 0 .926.343.926.862v.008c0 .523-.357.857-.918.857h-.935zM21.91 42.81h4.154v-1.264h-2.572v-4.92H21.91v6.185zm7.516.112c1.896 0 3.072-1.23 3.072-3.201v-.01c0-1.966-1.18-3.196-3.072-3.196-1.88 0-3.068 1.23-3.068 3.197v.008c0 1.972 1.18 3.202 3.068 3.202zm0-1.303c-.888 0-1.457-.724-1.457-1.898v-.01c0-1.173.573-1.893 1.457-1.893.892 0 1.465.724 1.465 1.894v.008c0 1.162-.56 1.9-1.465 1.9zm6.744 1.303c1.77 0 2.822-1.033 2.822-2.726v-.776h-2.77v1.115h1.245l-.005.077c-.052.621-.543 1.007-1.258 1.007-.91 0-1.495-.703-1.495-1.928v-.005c0-1.2.53-1.868 1.426-1.868.608 0 1.051.295 1.215.797l.013.043h1.564l-.008-.052c-.164-1.2-1.263-2.091-2.788-2.091-1.875 0-3.034 1.183-3.034 3.188v.005c0 2.035 1.155 3.214 3.072 3.214zm6.502 0c1.896 0 3.073-1.23 3.073-3.201v-.01c0-1.966-1.181-3.196-3.073-3.196-1.879 0-3.068 1.23-3.068 3.197v.008c0 1.972 1.18 3.202 3.068 3.202zm0-1.303c-.888 0-1.456-.724-1.456-1.898v-.01c0-1.173.573-1.893 1.456-1.893.892 0 1.465.724 1.465 1.894v.008c0 1.162-.56 1.9-1.465 1.9z" fill="#fff"/></g><defs><filter id="filter0_d_6305_170186" x="-10" y="-8" width="92" height="92" filterUnits="userSpaceOnUse" color-interpolation-filters="sRGB"><feFlood flood-opacity="0" result="BackgroundImageFix"/><feColorMatrix in="SourceAlpha" values="0 0 0 0 0 0 0 0 0 0 0 0 0 0 0 0 0 0 127 0" result="hardAlpha"/><feOffset dy="2"/><feGaussianBlur stdDeviation="5"/><feComposite in2="hardAlpha" operator="out"/><feColorMatrix values="0 0 0 0 0 0 0 0 0 0 0 0 0 0 0 0 0 0 0.2 0"/><feBlend in2="BackgroundImageFix" result="effect1_dropShadow_6305_170186"/><feBlend in="SourceGraphic" in2="effect1_dropShadow_6305_170186" result="shape"/></filter></defs></svg>