<svg width="72" height="76" viewBox="0 0 72 76" fill="none" xmlns="http://www.w3.org/2000/svg"><g filter="url(#filter0_d_6305_169568)"><path d="M26.851 42.283l-9.893 5.142h37.464l-8.443-4.351-19.128-.791zM58.38 54.345H13V64h45.38v-9.655z" fill="#5BA7B1"/><path d="M21.97 63.907c4.954 0 8.97-4.014 8.97-8.966 0-4.952-4.016-8.966-8.97-8.966-4.954 0-8.97 4.014-8.97 8.966 0 4.952 4.016 8.966 8.97 8.966zm27.439 0c4.954 0 8.97-4.014 8.97-8.966 0-4.952-4.016-8.966-8.97-8.966-4.954 0-8.97 4.014-8.97 8.966 0 4.952 4.016 8.966 8.97 8.966z" fill="#5BA7B1"/><path d="M46.507 36.744H24.873V54.15h21.634V36.744z" fill="#DEAC90"/><path d="M37.8 42.81c5.975 0 10.818-6.14 10.818-13.713 0-7.574-4.843-13.713-10.818-13.713-5.974 0-10.817 6.14-10.817 13.713 0 7.573 4.843 13.713 10.817 13.713z" fill="#BF8563"/><path d="M24.477 43.337a6.726 6.726 0 006.727-6.725 6.726 6.726 0 00-6.727-6.724 6.726 6.726 0 00-6.728 6.724 6.726 6.726 0 006.728 6.725zm22.162 0a6.726 6.726 0 006.727-6.725 6.726 6.726 0 00-6.727-6.724 6.726 6.726 0 00-6.728 6.724 6.726 6.726 0 006.728 6.725z" fill="#906509"/><path d="M35.69 39.909c5.682 0 10.29-6.14 10.29-13.713 0-7.574-4.608-13.713-10.29-13.713-5.683 0-10.29 6.14-10.29 13.713 0 7.573 4.607 13.713 10.29 13.713z" fill="#BF8563"/><path d="M26.455 21.713h-4.749v9.757h4.75v-9.757zm23.218 0h-4.75v9.757h4.75v-9.757z" fill="#906509"/><path d="M35.69 39.909c5.682 0 10.29-6.14 10.29-13.713 0-7.574-4.608-13.713-10.29-13.713-5.683 0-10.29 6.14-10.29 13.713 0 7.573 4.607 13.713 10.29 13.713z" fill="#E9B99E"/><path fill-rule="evenodd" clip-rule="evenodd" d="M35.152 8.01c.178-.007.358-.01.537-.01 7.723 0 13.984 6.258 13.984 13.977 0 .18-.004.358-.01.537-.807.166-1.641.254-2.497.254-6.775 0-12.268-5.49-12.268-12.263 0-.855.087-1.69.254-2.495z" fill="#6D493C"/><path d="M18.277 34.24c2.11-3.376 3.341-8.264 3.693-10.285l1.32.131V34.24h-5.013zm34.298-.66c-2.11-3.376-3.342-8.263-3.694-10.285l-1.319.132V33.58h5.013z" fill="#906509"/><path fill-rule="evenodd" clip-rule="evenodd" d="M43.112 10.13c-2.756 7.087-9.647 12.11-17.712 12.11a19.13 19.13 0 01-3.694-.358C21.757 14.206 27.998 8 35.69 8c2.727 0 5.272.78 7.423 2.13z" fill="#906509"/><path d="M20.735 50.753a1.995 1.995 0 011.986-2.201h26.903c1.179 0 2.1 1.014 1.987 2.185L50.326 64h-28.2l-1.39-13.247z" fill="#F0F1F2"/><path d="M35.69 60.138a2.414 2.414 0 100-4.828 2.414 2.414 0 000 4.828z" fill="#D2D5D9"/><mask id="a" style="mask-type:alpha" maskUnits="userSpaceOnUse" x="25" y="12" width="21" height="28"><path d="M35.69 39.909c5.682 0 10.29-6.14 10.29-13.713 0-7.574-4.608-13.713-10.29-13.713-5.683 0-10.29 6.14-10.29 13.713 0 7.573 4.607 13.713 10.29 13.713z" fill="#BF8563"/></mask><g mask="url(#a)"><path fill-rule="evenodd" clip-rule="evenodd" d="M40.002 33.077c3.736-1.06 5.808-3.87 6.34-5.035l1.92.875c-.733 1.608-3.235 4.926-7.684 6.19l-.576-2.03z" fill="#6B7177"/><path d="M39.251 32.372h-1.846a1.714 1.714 0 100 3.428h1.846a1.715 1.715 0 100-3.428z" fill="#42474C"/></g></g><defs><filter id="filter0_d_6305_169568" x="-10" y="-8" width="92" height="92" filterUnits="userSpaceOnUse" color-interpolation-filters="sRGB"><feFlood flood-opacity="0" result="BackgroundImageFix"/><feColorMatrix in="SourceAlpha" values="0 0 0 0 0 0 0 0 0 0 0 0 0 0 0 0 0 0 127 0" result="hardAlpha"/><feOffset dy="2"/><feGaussianBlur stdDeviation="5"/><feComposite in2="hardAlpha" operator="out"/><feColorMatrix values="0 0 0 0 0 0 0 0 0 0 0 0 0 0 0 0 0 0 0.25 0"/><feBlend in2="BackgroundImageFix" result="effect1_dropShadow_6305_169568"/><feBlend in="SourceGraphic" in2="effect1_dropShadow_6305_169568" result="shape"/></filter></defs></svg>