<svg width="113" height="80" viewBox="0 0 113 80" fill="none" xmlns="http://www.w3.org/2000/svg"><g filter="url(#filter0_d_3945_24260)"><path d="M92.376 61.706h-74.92A2.461 2.461 0 0115 59.254V11.451A2.461 2.461 0 0117.456 9h74.92a2.461 2.461 0 012.457 2.451v47.803a2.461 2.461 0 01-2.457 2.452z" fill="#fff"/></g><path d="M24.826 17.58h-1.843c-1.044 0-1.842-.797-1.842-1.84 0-1.04.798-1.838 1.842-1.838h1.843v3.678z" fill="#E72131"/><path d="M28.512 13.902h-3.685v3.678h3.685v-3.678z" fill="#0163D1"/><path d="M32.196 13.902H28.51v3.678h3.685v-3.678z" fill="#F79D15"/><path d="M34.038 17.58h-1.843v-3.678h1.843c1.044 0 1.842.797 1.842 1.839 0 .98-.798 1.838-1.842 1.838z" fill="#5AAE36"/><path d="M88.69 40.869H62.9a1.23 1.23 0 01-1.229-1.226V27.386A1.23 1.23 0 0162.9 26.16h25.79a1.23 1.23 0 011.228 1.226v12.257a1.23 1.23 0 01-1.228 1.226z" fill="#E8E9EB"/><path d="M73.953 32.286h12.282a1.23 1.23 0 001.228-1.225v-1.226a1.23 1.23 0 00-1.228-1.226H73.953a1.23 1.23 0 00-1.228 1.226v1.226a1.23 1.23 0 001.228 1.225z" fill="#7FBEC6"/><path d="M73.753 38.345h12.282a1.23 1.23 0 001.228-1.226v-1.225a1.23 1.23 0 00-1.228-1.226H73.753a1.23 1.23 0 00-1.228 1.226v1.225a1.23 1.23 0 001.228 1.226zm-8.395-7.285h2.456a1.23 1.23 0 001.228-1.225 1.23 1.23 0 00-1.228-1.226h-2.456a1.23 1.23 0 00-1.229 1.226 1.23 1.23 0 001.229 1.226z" fill="#B6BABF"/><path d="M72.726 16.963h7.369a1.23 1.23 0 001.228-1.226 1.23 1.23 0 00-1.228-1.225h-7.37a1.23 1.23 0 00-1.227 1.225 1.23 1.23 0 001.228 1.226z" fill="#E8E9EB"/><path d="M85.007 16.963h3.685a1.23 1.23 0 001.228-1.226 1.23 1.23 0 00-1.228-1.225h-3.684a1.23 1.23 0 00-1.229 1.225 1.23 1.23 0 001.228 1.226z" fill="#7FBEC6"/><g filter="url(#filter1_d_3945_24260)"><path d="M98.564 67.836H60.122a3.495 3.495 0 01-3.5-3.493V49.267c0-1.9 1.534-3.494 3.5-3.494h38.442c1.904 0 3.5 1.533 3.5 3.494v15.137c0 1.9-1.535 3.432-3.5 3.432z" fill="#fff"/></g><path d="M66.383 52.883c-4.36 0-4.544 3.37-4.544 4.29 0 0-.184 3.983 4.421 3.983 3.992 0 4.176-2.512 4.176-2.512h-1.842s-.368 1.348-2.334 1.348c-2.517-.061-2.64-2.513-2.64-2.513h7.062s.553-4.596-4.299-4.596zm-2.702 3.432s.123-2.206 2.64-2.206c2.519 0 2.519 2.206 2.519 2.206h-5.16z" fill="#E72131"/><path d="M75.598 52.883c-2.21 0-3.132 1.287-3.132 1.287v-4.412h-1.78v9.254s0 1.103-.062 1.777h1.72l.06-1.042s.8 1.287 3.133 1.287 4.176-1.41 4.237-4.106c.061-2.512-1.965-3.983-4.176-4.045zm-.43 7.11c-2.763.06-2.702-2.942-2.702-2.942s-.122-2.88 2.702-2.942c2.825-.061 2.764 3.003 2.764 3.003s0 2.82-2.764 2.88z" fill="#0163D1"/><path d="M87.878 59.073c0-1.226.061-2.268 0-3.003-.062-.858.061-3.003-3.746-3.126 0 0-3.624-.306-3.992 2.39h1.842s.123-1.226 2.027-1.226c1.78.062 2.088.92 2.088 1.962H84.07c-.92 0-4.114.122-4.421 2.083-.369 2.33 1.72 3.065 3.377 3.065 1.658 0 2.58-.49 3.255-1.349l.061 1.103h1.597c0-.122-.061-.735-.061-1.9zm-4.606.98s-1.781 0-1.842-1.41c-.123-1.532 2.702-1.409 2.702-1.409h2.026s.307 2.82-2.886 2.82z" fill="#F79D15"/><path d="M86.958 53.191h2.026l3.01 5.945 3.009-5.945h1.842l-5.404 10.603h-2.027l1.597-2.942-4.053-7.66z" fill="#5AAE36"/><path d="M53.074 48.224H22.37A1.23 1.23 0 0121.141 47V23.71a1.23 1.23 0 011.228-1.226h30.705a1.23 1.23 0 011.229 1.226V47a1.23 1.23 0 01-1.229 1.225z" fill="#5BA7B1"/><path d="M43.862 56.801h2.456a1.23 1.23 0 001.229-1.225v-2.452a1.23 1.23 0 00-1.229-1.226h-2.456a1.23 1.23 0 00-1.228 1.226v2.452a1.23 1.23 0 001.228 1.225zm-7.37 0h2.456a1.23 1.23 0 001.228-1.225v-2.452a1.23 1.23 0 00-1.228-1.226h-2.456a1.23 1.23 0 00-1.228 1.226v2.452a1.23 1.23 0 001.228 1.225zm-7.368 0h2.456a1.23 1.23 0 001.228-1.225v-2.452a1.23 1.23 0 00-1.228-1.226h-2.456a1.23 1.23 0 00-1.229 1.226v2.452a1.23 1.23 0 001.229 1.225z" fill="#E8E9EB"/><path d="M24.211 54.964v-1.226a.614.614 0 00-.982-.49l-.799.613a.637.637 0 000 .98l.799.613c.43.306.982 0 .982-.49zm27.021-1.226v1.226c0 .49.553.796.983.49l.798-.613a.637.637 0 000-.98l-.798-.613a.614.614 0 00-.983.49z" fill="#B6BABF"/><path d="M21.141 39.64v7.355a1.23 1.23 0 001.228 1.226h30.705a1.23 1.23 0 001.229-1.226V39.64H21.14z" fill="#7FBEC6"/><path d="M42.635 43.32h-9.826v1.226h9.826V43.32z" fill="#975D48"/><path d="M30.968 48.224h1.229l3.07-9.806h-1.228l-3.07 9.806z" fill="#975D48"/><path d="M43.248 48.224h1.228l-3.07-9.806h-1.229l3.07 9.806zm-4.911-9.806H37.11v9.806h1.228v-9.806z" fill="#BF8563"/><path d="M36.125 29.41c-1.72-1.655-4.544-1.288-5.772.735l-1.167 1.9a1.152 1.152 0 00-.123.49c0 .551.43.98.983.98h4.544v6.129h8.781a1.807 1.807 0 001.781-2.206l-.49-2.452c-.185-.858-.922-1.47-1.782-1.47h-.245c-1.413 0-3.01-.675-3.685-1.349l-2.825-2.758z" fill="#fff"/><path d="M39.749 39.027c-.86 0-1.659-.612-1.781-1.47l-.492-2.574c-.184-.858-.92-1.471-1.78-1.471h-5.957v2.451a3.692 3.692 0 003.684 3.677h10.01a1.76 1.76 0 001.351-.613H39.75z" fill="#D2D5D9"/><defs><filter id="filter0_d_3945_24260" x="10" y="5" width="89.833" height="62.707" filterUnits="userSpaceOnUse" color-interpolation-filters="sRGB"><feFlood flood-opacity="0" result="BackgroundImageFix"/><feColorMatrix in="SourceAlpha" values="0 0 0 0 0 0 0 0 0 0 0 0 0 0 0 0 0 0 127 0" result="hardAlpha"/><feOffset dy="1"/><feGaussianBlur stdDeviation="2.5"/><feColorMatrix values="0 0 0 0 0 0 0 0 0 0 0 0 0 0 0 0 0 0 0.3 0"/><feBlend in2="BackgroundImageFix" result="effect1_dropShadow_3945_24260"/><feBlend in="SourceGraphic" in2="effect1_dropShadow_3945_24260" result="shape"/></filter><filter id="filter1_d_3945_24260" x="46.621" y="37.773" width="65.443" height="42.063" filterUnits="userSpaceOnUse" color-interpolation-filters="sRGB"><feFlood flood-opacity="0" result="BackgroundImageFix"/><feColorMatrix in="SourceAlpha" values="0 0 0 0 0 0 0 0 0 0 0 0 0 0 0 0 0 0 127 0" result="hardAlpha"/><feOffset dy="2"/><feGaussianBlur stdDeviation="5"/><feColorMatrix values="0 0 0 0 0 0 0 0 0 0 0 0 0 0 0 0 0 0 0.3 0"/><feBlend in2="BackgroundImageFix" result="effect1_dropShadow_3945_24260"/><feBlend in="SourceGraphic" in2="effect1_dropShadow_3945_24260" result="shape"/></filter></defs></svg>