<svg width="113" height="76" viewBox="0 0 113 76" fill="none" xmlns="http://www.w3.org/2000/svg"><g filter="url(#filter0_d_3945_24227)"><path d="M91.013 61.002H22.27c-1.24 0-2.254-1-2.254-2.222V13.222C20.016 12 21.03 11 22.27 11h68.743c1.24 0 2.254 1 2.254 2.222V58.78c0 1.222-1.014 2.222-2.254 2.222z" fill="#fff"/></g><path d="M88.76 25.445H45.934V48.78H88.76V25.445zm-51.84 7.777H25.65c-.619 0-1.126-.5-1.126-1.11 0-.612.507-1.112 1.127-1.112h11.27c.62 0 1.126.5 1.126 1.111s-.507 1.111-1.127 1.111zm0 5.558H25.65c-.619 0-1.126-.5-1.126-1.11 0-.611.507-1.111 1.127-1.111h11.27c.62 0 1.126.5 1.126 1.11 0 .612-.507 1.112-1.127 1.112z" fill="#E8E9EB"/><path d="M33.54 27.668h-7.89c-.619 0-1.126-.5-1.126-1.111 0-.612.507-1.112 1.127-1.112h7.888c.62 0 1.127.5 1.127 1.111 0 .612-.507 1.112-1.127 1.112z" fill="#EC856F"/><path d="M88.76 48.781H45.934v6.667H88.76v-6.667z" fill="#D2D5D9"/><path d="M93.267 22.112h-73.25v-8.89C20.016 12 21.03 11 22.27 11h68.743c1.24 0 2.254 1 2.254 2.222v8.89z" fill="#336FB2"/><path d="M83.124 48.777h-29.3c-.62 0-1.127-.5-1.127-1.111v-1.111H84.25v1.11c0 .612-.507 1.112-1.127 1.112z" fill="#fff"/><path d="M84.251 46.556v-1.889a3.34 3.34 0 00-2.48-3.222l-6.592-1.778c-2.197-.611-4.113-1.778-5.578-3.5l-3.832-4.39c-.45-.5-1.07-.777-1.69-.777H53.824c-.62 0-1.127.5-1.127 1.111v14.445H84.25z" fill="#399C97"/><path d="M81.772 41.445l-6.593-1.778c-2.197-.611-4.113-1.778-5.578-3.5l-3.832-4.39c-.45-.5-1.07-.777-1.69-.777H53.824c-.62 0-1.127.5-1.127 1.111v1.111h7.888l4.508 5.167c1.465 1.667 3.437 2.89 5.578 3.5l6.593 1.778c1.352.39 2.48.667 2.48 2.89h4.507v-1.89a3.34 3.34 0 00-2.48-3.222z" fill="#5AB2AC"/><path d="M58.331 42.67c-1.578 0-2.817-1.223-2.817-2.779 0-1.555 1.24-2.778 2.817-2.778 1.578 0 2.817 1.223 2.817 2.778 0 1.556-1.24 2.778-2.817 2.778zm19.609-2.28l-.34 1.28c-.056.277.113.61.395.666h.169c.225 0 .45-.166.563-.389l.338-1.278-1.127-.277zm-2.76-.723c-.17-.056-.395-.111-.564-.167l-.338 1.278c-.056.278.113.611.394.666h.17c.225 0 .45-.166.563-.388l.338-1.278-.564-.111zm-4.113.222c.113.055.225.111.282.111.169 0 .394-.111.45-.278l.733-1.11c-.338-.168-.62-.39-.958-.612l-.733 1.111c-.112.278-.056.611.226.778zm-2.932-3.333c-.225.222-.281.556-.056.778.113.111.282.222.45.222.114 0 .282-.055.339-.111l1.014-.889c-.113-.111-.225-.222-.282-.333l-.45-.5-1.015.833zM65.88 34.78a.645.645 0 00.45.166c.113 0 .282-.056.395-.111L67.739 34l-.732-.833-1.014.833c-.282.167-.339.556-.113.778z" fill="#fff"/><path d="M86.503 15.445h-2.254c-.62 0-1.127.5-1.127 1.111 0 .612.507 1.112 1.127 1.112h2.254c.62 0 1.127-.5 1.127-1.111 0-.612-.507-1.112-1.127-1.112z" fill="#5AB2AC"/><path d="M69.6 15.445h-4.508c-.62 0-1.127.5-1.127 1.111 0 .612.507 1.112 1.127 1.112H69.6c.62 0 1.127-.5 1.127-1.111 0-.612-.507-1.112-1.127-1.112zm-30.99-.555H26.215c-.958 0-1.69.723-1.69 1.667 0 .945.732 1.667 1.69 1.667h12.397c.958 0 1.69-.722 1.69-1.667 0-.944-.732-1.666-1.69-1.666zm34.371 1.666c0 .612.508 1.112 1.127 1.112h4.508c.62 0 1.127-.5 1.127-1.111 0-.612-.507-1.112-1.127-1.112h-4.508c-.62 0-1.127.5-1.127 1.111z" fill="#fff"/><path d="M58.33 46.555h-2.254v2.222h2.254v-2.222z" fill="#E8E9EB"/><path d="M56.641 52.667h-6.762v-6.112l2.818-2.778h1.127l2.817 2.778v6.112z" fill="#fff"/><path d="M38.047 55.447c0-7.389-6.03-13.334-13.524-13.334C17.03 42.113 11 48.058 11 55.447c0 6.667 4.959 12.168 11.382 13.168V59.28h-3.437v-3.834h3.437v-2.944c0-3.334 2.029-5.167 5.128-5.167 1.465 0 3.042.278 3.042.278v3.278h-1.69c-1.69 0-2.197 1-2.197 2.055v2.5h3.775l-.62 3.834h-3.155v9.334c6.423-1 11.382-6.5 11.382-13.168z" fill="#336FB2"/><path d="M29.763 59.28l.62-3.833h-3.776v-2.5c0-1.055.507-2.055 2.198-2.055h1.69v-3.278s-1.521-.278-3.043-.278c-3.099 0-5.127 1.833-5.127 5.167v2.944h-3.437v3.834h3.437v9.334a13.9 13.9 0 004.282 0V59.28h3.156z" fill="#fff"/><defs><filter id="filter0_d_3945_24227" x="10.016" y="3" width="93.251" height="70.004" filterUnits="userSpaceOnUse" color-interpolation-filters="sRGB"><feFlood flood-opacity="0" result="BackgroundImageFix"/><feColorMatrix in="SourceAlpha" values="0 0 0 0 0 0 0 0 0 0 0 0 0 0 0 0 0 0 127 0" result="hardAlpha"/><feOffset dy="2"/><feGaussianBlur stdDeviation="5"/><feColorMatrix values="0 0 0 0 0 0 0 0 0 0 0 0 0 0 0 0 0 0 0.3 0"/><feBlend in2="BackgroundImageFix" result="effect1_dropShadow_3945_24227"/><feBlend in="SourceGraphic" in2="effect1_dropShadow_3945_24227" result="shape"/></filter></defs></svg>