<svg width="118" height="83" viewBox="0 0 118 83" fill="none" xmlns="http://www.w3.org/2000/svg"><g filter="url(#filter0_dd_3945_24300)"><path d="M40.317 15H6.27A1.27 1.27 0 005 16.27v29.367c0 .702.569 1.27 1.27 1.27h34.047a1.27 1.27 0 001.27-1.27V16.27a1.27 1.27 0 00-1.27-1.27z" fill="#fff"/></g><path d="M25.396 33.222h-11.27c-.619 0-1.126-.5-1.126-1.11C13 31.5 13.507 31 14.127 31h11.27c.62 0 1.126.5 1.126 1.111s-.507 1.111-1.127 1.111zm0 8h-11.27c-.619 0-1.126-.5-1.126-1.11C13 39.5 13.507 39 14.127 39h11.27c.62 0 1.126.5 1.126 1.111s-.507 1.111-1.127 1.111zm0-4h-11.27c-.619 0-1.126-.5-1.126-1.11C13 35.5 13.507 35 14.127 35h11.27c.62 0 1.126.5 1.126 1.111s-.507 1.111-1.127 1.111z" fill="#E8E9EB"/><path d="M6.06 17.502c.281 0 .297-.377.625-.377.336 0 .336.425.664.425.329 0 .344-.377.657-.377.312 0 .305.377.625.377s.344-.377.648-.377c.305 0 .415.377.61.377" stroke="#5AB2AC" stroke-width=".417" stroke-linecap="round" stroke-linejoin="round"/><path d="M38.397 17.129h1.701m-1.701 1.062h1.701m-1.701-.535h1.701" stroke="#222" stroke-width=".417" stroke-linecap="round" stroke-linejoin="round"/><path fill="#E6E7E9" d="M30.398 19.254h9.699v8.112h-9.699z"/><path d="M7.472 24.812h.52c.187 0 .34-.081.34-.18v-1.7c0-.1.154-.18.34-.18 0 0 3.189.005 3.212.007.154.016.273.086.273.172v1.701c0 .099.153.18.34.18h.248c.187 0 .34-.081.34-.18v-2l.147-.752.252-1.288c.017-.092.163-.162.336-.162h.793c.177 0 .327.072.34.165l.164 1.1.14.938c0 .037.057.068.128.068h1.17c.188 0 .341.08.341.18v2.811c0 .099.153.18.34.18h.895c.187 0 .34-.081.34-.18v-4.733c0-.1.153-.18.34-.18h2.559c.187 0 .34.08.34.18v4.731c0 .1.153.18.34.18h.29a.563.563 0 00.217-.043c.075-.033.123-.081.123-.137v-.905c0-.1.153-.18.34-.18h.738v1.42c-.044.01-.085.022-.126.032-.187.053-.36.117-.513.193-.44.218-.711.527-.711.87 0 .09.02.18.054.264 0 .007.003.012.003.016a.554.554 0 00-.125-.013h-8.38v-1.996c0-.099-.153-.18-.34-.18H7.472v-.4zM20.849 21.1h-1.551c-.208 0-.364.097-.337.205l.14.522c.023.088.166.155.337.155h1.231c.163 0 .306-.061.334-.148l.183-.522c.038-.111-.122-.212-.337-.212zm6.081 3.717v.905c0 .099.154.18.34.18h2.42v1.513h-2.814a.704.704 0 00.055-.262c0-.344-.276-.652-.711-.871a2.92 2.92 0 00-.64-.225h-.003v-1.42h1.013c.188 0 .34.08.34.18z" fill="#7FBEC6"/><path d="M27.113 22.57c.509.253.904.585 1.106.976a3.58 3.58 0 011.34-.34V19.42h-4.642l.087.748c.033.018.065.04.092.065a.26.26 0 01.09.192c0 .1-.06.173-.127.222l.063.545a.88.88 0 01.277.147.417.417 0 01.169.318.407.407 0 01-.15.302.74.74 0 01-.15.102c.7.077 1.336.256 1.845.51zm-12.038-1.962c-.016-.11-.105-.18-.181-.216a.672.672 0 00-.289-.061h-.792a.666.666 0 00-.284.06c-.075.035-.162.102-.181.208 0 0 0 0 0 0l-.227 1.161a3.746 3.746 0 00-.716-.047c-.085-.533-.53-.986-1.151-1.307-.677-.35-1.594-.561-2.6-.561-.359 0-.705.029-1.034.079l.004-.473h16.844l-.104.728a.469.469 0 00-.116.07.271.271 0 00-.104.207c0 .08.038.142.084.186.02.019.041.036.064.05l-.074.528a.894.894 0 00-.283.147.42.42 0 00-.172.322c0 .122.063.225.148.301a.605.605 0 00.103.075c-.834.055-1.59.251-2.177.549V20.99c0-.122-.092-.201-.17-.242a.655.655 0 00-.301-.068h-2.559a.655.655 0 00-.301.068c-.078.04-.17.12-.17.242v.897c-.562-.258-1.286-.41-2.074-.41a5.75 5.75 0 00-1.044.095m-.143-.964h0l-.13.019.13-.019zm0 0l.143.964m0 0l.02.129-.148-.104.128-.025z" fill="#E8E9EB" stroke="#E8E9EB" stroke-width=".261"/><path d="M20.878 21.818l.178-.505a.374.374 0 00-.205-.054H19.3a.387.387 0 00-.191.043.119.119 0 00-.02.014l.135.503c.002.001.01.014.043.029.04.018.1.032.169.032h1.231a.414.414 0 00.164-.03c.038-.018.047-.033.047-.032 0 0 0 0 0 0zm-1.794-.496s.002 0 .002-.003l-.002.003z" fill="#E8E9EB" stroke="#E8E9EB" stroke-width=".261"/><g filter="url(#filter1_dd_3945_24300)"><path d="M111.396 31H77.27A1.27 1.27 0 0076 32.27v30.46c0 .701.569 1.27 1.27 1.27h34.126a1.27 1.27 0 001.271-1.27V32.27a1.27 1.27 0 00-1.271-1.27z" fill="#fff"/><path d="M109.167 49h-8.334c-.458 0-.833-.45-.833-1s.375-1 .833-1h8.334c.458 0 .833.45.833 1s-.375 1-.833 1z" fill="#E8E9EB"/><path d="M109.167 38h-8.334c-.458 0-.833-.45-.833-1s.375-1 .833-1h8.334c.458 0 .833.45.833 1s-.375 1-.833 1z" fill="#D2D5D9"/><path d="M109.167 53h-8.334c-.458 0-.833-.45-.833-1s.375-1 .833-1h8.334c.458 0 .833.45.833 1s-.375 1-.833 1z" fill="#E8E9EB"/></g><path d="M77.046 33.322c.278 0 .293-.373.618-.373.332 0 .332.42.656.42.325 0 .34-.372.649-.372s.301.373.618.373c.316 0 .34-.373.64-.373.302 0 .41.373.603.373" stroke="#222" stroke-width=".417" stroke-linecap="round" stroke-linejoin="round"/><path fill="#A3D4D0" d="M78 36h20v23H78z"/><path fill="#F4BBAE" d="M77.502 53.445h10.346v8.337H77.502z"/><rect x="100" y="42" width="10" height="2" rx=".768" fill="#5AB2AC"/><path d="M83.58 44.113c-.544 0-1.007.309-1.084.726l-.562 3.013c-.095.51.418.966 1.084.966" fill="#208B86"/><path d="M90.904 44.39h-4.412v.277h4.412v-.276z" fill="#E8E9EB"/><path d="M90.43 40.538c-.06.257-.123.532-.164.532-.042 0-.07-.136-.106-.32-.05-.253-.12-.6-.273-.813a1.395 1.395 0 00-.168-.166 1.98 1.98 0 00-1.024-.276c-.379.001-.738.1-1.024.276a1.395 1.395 0 00-.168.166c-.152.213-.221.56-.272.813-.037.184-.064.32-.106.32-.041 0-.105-.275-.164-.532-.049-.213-.095-.414-.123-.435a.296.296 0 01-.109-.194.388.388 0 01.081-.313c.433-.5 1.12-.74 1.879-.74h.013c.759 0 1.446.24 1.878.74a.388.388 0 01.082.313.297.297 0 01-.109.194c-.028.021-.075.222-.124.435z" fill="#208B86"/><path d="M86.99 39.406c-.691.554-.957 1.316-1.091 1.996l-1.672 8.521h1.706l1.293-8.519a3.5 3.5 0 00.03-.776c-.405-.53-.267-1.222-.267-1.222z" fill="#208B86"/><path d="M90.397 39.406c.69.554.957 1.316 1.09 1.996l1.673 8.521h-1.706l-1.293-8.519a3.5 3.5 0 01-.031-.776c.405-.53.267-1.222.267-1.222z" fill="#57AAA4"/><path d="M90.005 48.267h-2.618c-.116 0-.21-.086-.21-.192v-1c0-.106.094-.192.21-.192h2.618c.116 0 .21.086.21.191v1.001c0 .106-.093.192-.21.192z" fill="#42474C"/><path d="M87.169 44.672h.596l.099 1.273c.016.21-.174.388-.413.388-.244 0-.435-.184-.413-.396l.13-1.265z" fill="#E8E9EB"/><path d="M87.452 46.179a.263.263 0 100-.526.263.263 0 000 .526z" fill="#5AB2AC"/><path d="M80.466 57.55c-.247 0-.457.141-.492.33l-.256 1.37c-.043.232.19.44.493.44" fill="#ED8F82"/><path d="M84.896 60.194h-4.27c-.381 0-.618-.384-.564-.755l.17-1.519a1.324 1.324 0 011.318-1.123h2.422c.663 0 1.225.479 1.318 1.123l.227 1.57a.62.62 0 01-.621.704z" fill="#42474C"/><path d="M84.927 60.192h-4.269c-.382 0-.675-.307-.621-.651l.182-1.362c.093-.597.7-1.132 1.363-1.132h2.422c.662 0 1.224.443 1.318 1.04l.227 1.454c.053.344-.24.651-.622.651z" fill="#F9B669"/><path d="M83.793 57.676h-2.006v.125h2.006v-.125z" fill="#E8E9EB"/><path d="M83.576 55.925c-.027.117-.056.242-.075.242-.019 0-.03-.062-.048-.146-.023-.115-.054-.272-.124-.37a.635.635 0 00-.076-.075.9.9 0 00-.465-.125.9.9 0 00-.466.125.642.642 0 00-.076.076c-.07.097-.101.254-.124.37-.017.083-.03.145-.048.145-.019 0-.048-.125-.075-.242a.85.85 0 00-.056-.198.135.135 0 01-.05-.088.176.176 0 01.037-.142c.198-.227.51-.337.855-.337h.006c.344 0 .657.11.853.337a.176.176 0 01.037.142.134.134 0 01-.049.088.85.85 0 00-.056.198z" fill="#ED8F82"/><path d="M82.016 55.414c-.314.252-.435.598-.496.907l-.76 3.874h.776l.587-3.873a1.59 1.59 0 00.014-.352c-.184-.241-.121-.556-.121-.556zm1.549 0c.314.252.435.598.496.907l.76 3.874h-.775l-.588-3.873a1.59 1.59 0 01-.014-.352c.184-.241.121-.556.121-.556z" fill="#ED8F82"/><path d="M83.386 59.438h-1.19c-.053 0-.096-.04-.096-.087v-.455c0-.048.043-.087.096-.087h1.19c.052 0 .095.039.095.087v.455c0 .047-.042.087-.095.087z" fill="#42474C"/><path d="M82.1 57.8h.271l.045.58c.008.095-.078.176-.188.176s-.197-.084-.187-.18l.06-.575z" fill="#E8E9EB"/><path d="M82.226 58.485a.12.12 0 100-.239.12.12 0 000 .239z" fill="#F9B669"/><path d="M91.721 57.547c-.247 0-.458.14-.493.33l-.255 1.37c-.043.231.19.438.493.438" fill="#56A95E"/><g filter="url(#filter2_d_3945_24300)"><path d="M89.114 8H30.057a4 4 0 00-4 4v54.866a4 4 0 004 4h59.057a4 4 0 004-4V12a4 4 0 00-4-4z" fill="#fff"/></g><path d="M89.11 8H29.948A3.947 3.947 0 0026 11.947v32.096h67.057V11.947A3.947 3.947 0 0089.111 8z" fill="#7FBEC6"/><mask id="a" style="mask-type:alpha" maskUnits="userSpaceOnUse" x="59" y="8" width="32" height="35"><path fill="#D9D9D9" d="M59.11 8h31.014v34.786H59.11z"/></mask><g mask="url(#a)"><path d="M76.254 35.8c1.314.584 1.601 1.362 3.491 3.145 1.89 1.783 4.928 2.107 7.31 2.01.723-.03 1.181-.212 1.468-.452.028-.783-.237-1.716-1.139-2.466-1.52-1.265-4.394-3.21-5.298-4.961-.904-1.75-1.766-2.302-2.26-2.529-.493-.226-4.534-.675-4.534-.675s-.846-.103-1.052.643c-.205.746-.575 1.102-.904 2.075-.121.359-.22.774-.292 1.183.636.863 1.992 1.487 3.21 2.027z" fill="#fff"/><path d="M87.056 40.954c-2.381.098-5.421-.226-7.31-2.01-1.89-1.784-2.176-2.562-3.491-3.145-1.218-.54-2.574-1.165-3.209-2.026-.123.7-.17 1.375-.118 1.702.082.519 1.437 1.102 2.506 1.556 1.068.454 2.252 1.88 2.85 2.497.6.616 2.982 2.464 5.364 2.756 2.382.292 4.066.227 4.518-.486.183-.29.34-.758.359-1.294-.287.238-.746.42-1.469.45z" fill="#EFEFEF"/><path d="M76.052 26.563s-.124 1.75-.616 2.95c-.493 1.2-.657 2.27-.329 2.658.33.39 1.191-.226 1.643-.486.451-.26 1.314-1.625 3.819-.699 0 0 .575-2.478 1.067-3.937l-5.584-.486z" fill="#E5B693"/><path d="M75.39 7.684s-.266 13.575-.266 14.859c0 1.284-.291 3.192-.291 3.297 0 .104.25.59.624.798.374.208 2.868 1.25 8.98 1.006 0 0 .374-.069.416-.52.041-.452 1.638-18.608 1.679-19.44H75.389z" fill="#336FB2"/><path d="M61.593 35.083a6.71 6.71 0 004.641-1.573c.74-.632.945-3.485 2.012-5.074 1.068-1.588 2.382-3.112 2.67-3.664.12-.231.35-.412.513-.676-.071-.184-.14-.344-.184-.458-.164-.422-1.026-1.168-1.56-1.946-.535-.778-1.11-.876-1.11-.876s-3.121 2.854-4.025 2.854c-.904 0-.986.26-1.273.746-.287.486-.246 2.27-.862 3.923-.581 1.561-2.516 3.064-2.835 4.592.137.9.588 2.092 2.013 2.152z" fill="#fff"/><path d="M71.427 24.098c-.16.264-.39.444-.512.676-.287.551-1.601 2.075-2.67 3.664-1.067 1.588-2.003 4.798-2.743 5.431-.74.633-1.631 1.204-3.91 1.215-1.212.007-1.877-1.253-2.014-2.152a2.3 2.3 0 00-.04.271c-.123 1.621.822 2.789 2.054 3.08 1.232.292 2.422.033 4.23-1.004 1.807-1.038 1.87-2.565 2.752-4.992.397-1.09 2.752-3.762 3.039-4.475.21-.52.005-1.213-.186-1.714z" fill="#EFEFEF"/><path d="M68.246 19.555s-.04.778.33 1.264c.369.486 1.64 2.788-.33 3.956 0 0-.41-.973-2.012-.94-1.602.032-2.26 0-2.26 0s.082-1.069 0-1.458c-.081-.39-.245-2.109-.245-2.109l4.517-.713z" fill="#E5B693"/><path d="M62.025 7.819s-1.174 11.624-1.093 12.11c.08.485.445.797 1.093.831.648.035 5.547-.52 6.68-1.074 0 0 .497-.068.491-.346-.005-.277 1.333-13.69 1.333-11.52l-8.504-.001z" fill="#336FB2"/></g><path d="M31 12.722c.552 0 .583-.722 1.227-.722.659 0 .659.814 1.303.814.643 0 .674-.722 1.287-.722.614 0 .598.722 1.227.722.628 0 .674-.722 1.272-.722s.813.722 1.196.722" stroke="#fff" stroke-width="1.541" stroke-linecap="round" stroke-linejoin="round"/><path d="M44.965 49.098H32.147c-1.09 0-1.973.883-1.973 1.973v12.818c0 1.09.883 1.973 1.973 1.973h12.818c1.09 0 1.973-.883 1.973-1.973V51.07c0-1.09-.883-1.973-1.973-1.973z" fill="#EC856F"/><path d="M44.965 49.098H32.147c-1.09 0-1.973.883-1.973 1.973v12.818c0 1.09.883 1.973 1.973 1.973h12.818c1.09 0 1.973-.883 1.973-1.973V51.07c0-1.09-.883-1.973-1.973-1.973z" fill="#fff" fill-opacity=".44"/><path d="M65.791 49H52.973c-1.09 0-1.973.883-1.973 1.973v12.818c0 1.09.883 1.973 1.973 1.973h12.818c1.09 0 1.973-.883 1.973-1.973V50.973c0-1.09-.883-1.973-1.973-1.973z" fill="#5AB2AC"/><path d="M65.791 49H52.973c-1.09 0-1.973.883-1.973 1.973v12.818c0 1.09.883 1.973 1.973 1.973h12.818c1.09 0 1.973-.883 1.973-1.973V50.973c0-1.09-.883-1.973-1.973-1.973z" fill="#fff" fill-opacity=".44"/><path d="M86.878 49.098H74.06c-1.09 0-1.973.883-1.973 1.973v12.818c0 1.09.883 1.973 1.973 1.973h12.818c1.09 0 1.973-.883 1.973-1.973V51.07c0-1.09-.883-1.973-1.973-1.973z" fill="#56AF96"/><path d="M86.878 49.098H74.06c-1.09 0-1.973.883-1.973 1.973v12.818c0 1.09.883 1.973 1.973 1.973h12.818c1.09 0 1.973-.883 1.973-1.973V51.07c0-1.09-.883-1.973-1.973-1.973z" fill="#fff" fill-opacity=".44"/><rect x="30.19" y="22.25" width="15.926" height="1.676" rx=".838" fill="#fff"/><rect x="30.19" y="25.605" width="20.536" height="1.676" rx=".838" fill="#fff"/><path d="M82.438 54.332l-.49 1.387a2.105 2.105 0 01-1.223 1.261l-3.617 1.4-.653.007a1.574 1.574 0 00-1.311.727.866.866 0 00.365 1.242c.5.238 1.293.502 2.347.49l7.277.025a.812.812 0 00.813-.822l-.019-1.766-.032-2.94-3.457-1.011z" fill="#69B17D"/><path d="M77.61 60.151c-1.055.011-1.848-.252-2.347-.492a.85.85 0 01-.248-.178.874.874 0 00.493.876c.5.238 1.293.503 2.348.491l7.276.024a.812.812 0 00.814-.821v-.06a.802.802 0 01-.51.177l-7.826-.017zm3.912-2.311c.775-.334 1.46-.846 1.744-1.644l.42-1.177-1.107-.324-.64 1.07c-.203.577-.682.966-1.254 1.187l-2.771 1.114.612 1 2.996-1.225z" fill="#108060"/><path d="M81.949 55.718l.769-2.28s.315.153.594.51c.495.631.6 1.386.278 2.1-.202.447-.588.774-.965 1.088" fill="#69B17D"/><path d="M79.132 58.417a.27.27 0 00.228-.409l-.258-.422-.506.203.306.5a.27.27 0 00.23.128zm1.074-.439a.27.27 0 00.228-.409l-.255-.417-.506.203.302.495c.052.082.14.128.23.128z" fill="#fff"/><path d="M82.626 57.144c.377-.32.764-.652.966-1.104.199-.444.231-.903.109-1.339l-.397-.117-.89-.256-.465 1.39a1.958 1.958 0 01-.107.246c-.011.022-.023.042-.035.063a2.071 2.071 0 01-.116.188c.23.39.533.699.934.929z" fill="#108060"/><path d="M81.253 57.565a.27.27 0 00.228-.409l-.289-.476a2.22 2.22 0 01-.476.255l.308.502a.27.27 0 00.23.128z" fill="#fff"/><path d="M76.222 58.928c.642.53 1.562.447 2.33.125l-.61-1.002-.833.33-.652.006c-.195.003-.38.04-.55.108.027.149.15.297.315.433z" fill="#F0F1F2"/><path d="M32.541 58.079s.01.003.033.006c.159.026.933.148 1.83.234l.326.029c.12.01.244.02.364.026.293.019.586.029.862.029h8.653v1.538h-8.653c-1.067 0-1.808-.064-2.322-.144a5.582 5.582 0 01-.534-.109c-.445-.115-.559-.227-.559-.227v-1.382z" fill="#fff"/><path d="M44.61 55.695v.56a3.562 3.562 0 01-2.487 1.007 3.562 3.562 0 01-2.97-1.584 3.407 3.407 0 01-.368-.728l.742-.346c.088.263.211.506.37.724a2.735 2.735 0 002.226 1.132c1.105 0 1.876-1.165 2.488-.765zM34.404 56.99v1.326a26.223 26.223 0 01-1.832-.234c.108-.192.27-.352.465-.455l.117-.054h.004l1.246-.584zm10.11.014c.032 0 .065 0 .097.003v1.391h-2.059a2.063 2.063 0 011.962-1.394z" fill="#FFD79D"/><path d="M38.781 54.95c.095.257.218.5.368.728l-.254.119-.25.115-.641.298-.25.116-.638.298-.25.115-.642.298-.25.116-.64.298-.248.115v.805c-.12-.006-.244-.016-.364-.026l-.325-.028v-1.328l.068-.032.25-.115.641-.298.25-.116.641-.298.25-.115.642-.299.25-.115.638-.298.25-.116.504-.237z" fill="#F4AF28"/><path d="M38.28 55.184l.72.712a.126.126 0 010 .183.13.13 0 01-.092.038.124.124 0 01-.09-.038l-.788-.776.25-.119zm-.889.416l.618.608.091.09a.127.127 0 010 .183.13.13 0 01-.09.038.13.13 0 01-.092-.038l-.16-.154-.617-.609.25-.119zm-.89.415l.7.69a.126.126 0 010 .182.13.13 0 01-.092.039.124.124 0 01-.09-.039l-.15-.147-.618-.61.25-.115zm-.89.412l.69.68a.127.127 0 010 .183.13.13 0 01-.091.038.13.13 0 01-.091-.038l-.758-.747.25-.116zm-.889.413l.618.609.065.064a.126.126 0 010 .183.13.13 0 01-.091.038.124.124 0 01-.091-.038l-.127-.125-.621-.612.247-.12z" fill="#fff"/><path d="M42.118 57.26c.97 0 1.848-.384 2.489-1.003v.75c-.033-.003-.066-.003-.098-.003-.914 0-1.688.583-1.961 1.394h-6.594c-.276 0-.569-.01-.862-.028v-.805l4.056-1.889a3.562 3.562 0 002.97 1.584z" fill="#DE6A5A"/><path d="M55.654 57.379c-.442 0-.817.25-.88.589l-.456 2.446c-.077.413.34.784.88.784" fill="#208B86"/><path d="M63.57 62.093h-7.624c-.682 0-1.105-.685-1.01-1.348l.305-2.711c.167-1.151 1.17-2.007 2.354-2.007h4.326c1.183 0 2.186.856 2.353 2.007l.405 2.803a1.107 1.107 0 01-1.11 1.256z" fill="#208B86"/><path d="M63.62 62.097h-7.624c-.682 0-1.205-.55-1.11-1.163l.325-2.432c.167-1.065 1.25-2.022 2.434-2.022h4.326c1.183 0 2.187.792 2.353 1.858l.406 2.596c.096.614-.428 1.163-1.11 1.163z" fill="#5AB2AC"/><path d="M61.21 54.475c-.047.209-.099.432-.132.432-.034 0-.056-.11-.086-.26-.041-.205-.097-.487-.221-.66a1.124 1.124 0 00-.136-.134 1.608 1.608 0 00-.832-.224c-.307 0-.6.081-.831.224a1.124 1.124 0 00-.136.134c-.124.173-.18.455-.222.66-.03.15-.051.26-.086.26-.033 0-.084-.223-.132-.432-.04-.173-.078-.336-.1-.353a.241.241 0 01-.089-.157.314.314 0 01.066-.254c.351-.406.909-.602 1.525-.602h.011c.616 0 1.173.196 1.524.601a.315.315 0 01.066.255.24.24 0 01-.088.157c-.023.017-.06.18-.1.353z" fill="#208B86"/><path d="M58.423 53.559c-.56.449-.776 1.068-.885 1.62l-1.357 6.917h1.385l1.05-6.915c.031-.21.04-.42.024-.63-.329-.43-.217-.992-.217-.992zm2.767 0c.56.449.776 1.068.885 1.62l1.357 6.917h-1.385l-1.05-6.915a2.844 2.844 0 01-.025-.63c.33-.43.217-.992.217-.992z" fill="#208B86"/><path d="M58.801 59.051a.213.213 0 100-.426.213.213 0 000 .426z" fill="#5AB2AC"/><defs><filter id="filter0_dd_3945_24300" x=".207" y="10.832" width="46.174" height="41.492" filterUnits="userSpaceOnUse" color-interpolation-filters="sRGB"><feFlood flood-opacity="0" result="BackgroundImageFix"/><feColorMatrix in="SourceAlpha" values="0 0 0 0 0 0 0 0 0 0 0 0 0 0 0 0 0 0 127 0" result="hardAlpha"/><feOffset dy=".625"/><feGaussianBlur stdDeviation="2.397"/><feColorMatrix values="0 0 0 0 0 0 0 0 0 0 0 0 0 0 0 0 0 0 0.09 0"/><feBlend in2="BackgroundImageFix" result="effect1_dropShadow_3945_24300"/><feColorMatrix in="SourceAlpha" values="0 0 0 0 0 0 0 0 0 0 0 0 0 0 0 0 0 0 127 0" result="hardAlpha"/><feOffset dy=".417"/><feGaussianBlur stdDeviation=".313"/><feColorMatrix values="0 0 0 0 0 0 0 0 0 0 0 0 0 0 0 0 0 0 0.12 0"/><feBlend in2="effect1_dropShadow_3945_24300" result="effect2_dropShadow_3945_24300"/><feBlend in="SourceGraphic" in2="effect2_dropShadow_3945_24300" result="shape"/></filter><filter id="filter1_dd_3945_24300" x="71.207" y="26.832" width="46.253" height="42.586" filterUnits="userSpaceOnUse" color-interpolation-filters="sRGB"><feFlood flood-opacity="0" result="BackgroundImageFix"/><feColorMatrix in="SourceAlpha" values="0 0 0 0 0 0 0 0 0 0 0 0 0 0 0 0 0 0 127 0" result="hardAlpha"/><feOffset dy=".625"/><feGaussianBlur stdDeviation="2.397"/><feColorMatrix values="0 0 0 0 0 0 0 0 0 0 0 0 0 0 0 0 0 0 0.09 0"/><feBlend in2="BackgroundImageFix" result="effect1_dropShadow_3945_24300"/><feColorMatrix in="SourceAlpha" values="0 0 0 0 0 0 0 0 0 0 0 0 0 0 0 0 0 0 127 0" result="hardAlpha"/><feOffset dy=".417"/><feGaussianBlur stdDeviation=".313"/><feColorMatrix values="0 0 0 0 0 0 0 0 0 0 0 0 0 0 0 0 0 0 0.12 0"/><feBlend in2="effect1_dropShadow_3945_24300" result="effect2_dropShadow_3945_24300"/><feBlend in="SourceGraphic" in2="effect2_dropShadow_3945_24300" result="shape"/></filter><filter id="filter2_d_3945_24300" x="16.057" y="0" width="87.057" height="82.867" filterUnits="userSpaceOnUse" color-interpolation-filters="sRGB"><feFlood flood-opacity="0" result="BackgroundImageFix"/><feColorMatrix in="SourceAlpha" values="0 0 0 0 0 0 0 0 0 0 0 0 0 0 0 0 0 0 127 0" result="hardAlpha"/><feOffset dy="2"/><feGaussianBlur stdDeviation="5"/><feColorMatrix values="0 0 0 0 0 0 0 0 0 0 0 0 0 0 0 0 0 0 0.25 0"/><feBlend in2="BackgroundImageFix" result="effect1_dropShadow_3945_24300"/><feBlend in="SourceGraphic" in2="effect1_dropShadow_3945_24300" result="shape"/></filter></defs></svg>